<svg xmlns="http://www.w3.org/2000/svg" width="148" height="148" viewBox="0 0 148 148">
<g>
<path d="M 61.08 146.98 C45.36,143.66 32.94,137.01 21.96,126.04 C12.52,116.59 7.03,107.39 2.84,94.00 C-0.52,83.23 -0.52,64.77 2.84,54.00 C7.03,40.61 12.52,31.41 21.96,21.96 C31.41,12.52 40.61,7.03 54.00,2.84 C64.77,-0.52 83.23,-0.52 94.00,2.84 C107.39,7.03 116.59,12.52 126.04,21.96 C135.48,31.41 140.97,40.61 145.16,54.00 C148.52,64.77 148.52,83.23 145.16,94.00 C137.24,119.34 119.57,137.13 94.50,145.00 C86.58,147.48 68.53,148.55 61.08,146.98 ZM 17.54 102.04 C18.51,103.12 20.22,104.00 21.33,104.00 C22.60,104.00 28.99,98.41 38.46,89.01 L 53.56 74.02 L 64.51 85.01 C73.51,94.04 75.99,96.00 78.42,96.00 C80.90,96.00 84.11,93.27 98.69,78.79 L 116.00 61.57 L 116.00 70.96 C116.00,80.87 117.22,84.00 121.08,84.00 C125.44,84.00 126.00,81.78 126.00,64.36 C126.00,54.91 125.56,47.04 124.96,45.93 C124.00,44.14 122.71,44.00 106.54,44.00 C92.06,44.00 88.88,44.26 87.57,45.57 C85.55,47.60 85.58,49.87 87.65,52.17 C89.04,53.70 90.88,54.00 98.89,54.00 L 108.47 54.00 L 93.50 69.00 L 78.53 84.00 L 67.50 73.00 C58.51,64.03 55.93,62.00 53.55,62.00 C51.11,62.00 47.85,64.76 33.77,78.75 C24.50,87.96 16.66,96.53 16.34,97.79 C15.97,99.24 16.41,100.80 17.54,102.04 Z" fill="rgba(99,102,241,1)"/>
<path d="M 17.54 102.04 C16.41,100.80 15.97,99.24 16.34,97.79 C16.66,96.53 24.50,87.96 33.77,78.75 C47.85,64.76 51.11,62.00 53.55,62.00 C55.93,62.00 58.51,64.03 67.50,73.00 L 78.53 84.00 L 93.50 69.00 L 108.47 54.00 L 98.89 54.00 C90.88,54.00 89.04,53.70 87.65,52.17 C85.58,49.87 85.55,47.60 87.57,45.57 C88.88,44.26 92.06,44.00 106.54,44.00 C122.71,44.00 124.00,44.14 124.96,45.93 C125.56,47.04 126.00,54.91 126.00,64.36 C126.00,81.78 125.44,84.00 121.08,84.00 C117.22,84.00 116.00,80.87 116.00,70.96 L 116.00 61.57 L 98.69 78.79 C84.11,93.27 80.90,96.00 78.42,96.00 C75.99,96.00 73.51,94.04 64.51,85.01 L 53.56 74.02 L 38.46 89.01 C28.99,98.41 22.60,104.00 21.33,104.00 C20.22,104.00 18.51,103.12 17.54,102.04 Z" fill="rgba(245,245,254,1)"/>
</g>
</svg>